# ProBuilder 5.2.4
# https://unity3d.com/unity/features/worldbuilding/probuilder
# 12/11/2025 1:14:06 AM

mtllib ./Plane.mtl
o Plane

g Plane
v 83.21711 9.952281E-05 -83.25813
v 83.21711 9.952281E-05 0.04691535
v -0.08792908 9.952281E-05 -83.25813
v -0.08792908 9.952281E-05 0.04691535
v 83.21711 9.952281E-05 83.35195
v -0.08792908 9.952281E-05 83.35195
v -83.39297 9.952281E-05 -83.25813
v -83.39297 9.952281E-05 0.04691535
v -83.39297 9.952281E-05 83.35195

vt -115.0907 -115.0232
vt -115.0907 9.976761
vt 9.909258 -115.0232
vt 9.909258 9.976761
vt -115.0907 134.9768
vt 9.909258 134.9768
vt 134.9093 -115.0232
vt 134.9093 9.976761
vt 134.9093 134.9768

vn 0 0.6664403 0

usemtl ProBuilderDefault
f 3/3/1 4/4/1 2/2/1 1/1/1
f 4/4/1 6/6/1 5/5/1 2/2/1
f 7/7/1 8/8/1 4/4/1 3/3/1
f 8/8/1 9/9/1 6/6/1 4/4/1

